<?xml version="1.0" standalone="no"?>
<!DOCTYPE svg PUBLIC "-//W3C//DTD SVG 20010904//EN"
 "http://www.w3.org/TR/2001/REC-SVG-20010904/DTD/svg10.dtd">
<svg version="1.0" xmlns="http://www.w3.org/2000/svg"
 width="1072.000000pt" height="122.000000pt" viewBox="0 0 1072.000000 122.000000"
 preserveAspectRatio="xMidYMid meet">

<g transform="translate(0.000000,122.000000) scale(0.100000,-0.100000)"
fill="#000000" stroke="none">
<path d="M2305 1112 c-5 -4 -32 -40 -59 -79 -57 -86 -135 -161 -203 -194 -45
-22 -61 -24 -250 -27 l-203 -3 0 40 c0 38 2 40 33 43 28 3 32 6 32 33 l0 30
-100 3 c-84 2 -102 0 -112 -14 -19 -25 1 -54 37 -54 28 0 30 -2 30 -40 l0 -40
-115 0 -115 0 0 40 c0 38 2 40 30 40 36 0 59 32 39 56 -9 11 -34 14 -113 12
l-101 -3 0 -30 c0 -27 4 -30 33 -33 30 -3 32 -6 32 -43 l0 -39 -132 0 -133 0
-37 42 c-31 36 -40 41 -55 32 -16 -10 -18 -28 -18 -190 l0 -179 24 -3 c17 -3
31 6 53 32 44 54 64 48 71 -19 8 -75 50 -150 110 -193 41 -30 47 -38 47 -71 0
-54 12 -61 111 -61 96 0 119 11 119 56 0 21 5 24 35 24 30 0 35 -3 35 -24 0
-45 23 -56 120 -56 97 0 120 11 120 56 0 22 4 24 48 24 64 0 139 37 188 93 44
50 64 102 64 167 0 41 1 42 28 35 83 -20 185 -109 264 -231 30 -48 47 -64 63
-64 13 0 26 7 29 16 3 9 6 193 6 409 0 380 -1 395 -19 405 -23 12 -23 12 -36
2z m-25 -413 l0 -242 -62 62 c-72 73 -142 116 -216 132 -40 9 -58 20 -77 45
-14 18 -25 35 -25 37 0 3 28 6 63 9 89 5 164 45 246 128 36 37 67 68 69 69 1
0 2 -108 2 -240z m-486 27 c101 -20 168 -164 120 -259 -43 -85 -88 -109 -219
-116 l-100 -6 -3 -32 c-3 -31 -6 -33 -43 -33 l-39 0 0 150 0 150 40 0 40 0 0
-64 c0 -82 9 -89 99 -84 78 4 104 20 128 76 17 41 5 87 -33 123 l-26 24 -434
0 -434 0 0 40 0 40 438 -2 c240 -1 450 -4 466 -7z m-664 -236 c0 -49 -4 -90
-8 -90 -28 0 -72 89 -72 145 0 34 1 35 40 35 l40 0 0 -90z m150 -60 l0 -150
-40 0 -40 0 0 150 0 150 40 0 40 0 0 -150z m150 115 c0 -33 -2 -35 -35 -35
-33 0 -35 2 -35 35 0 33 2 35 35 35 33 0 35 -2 35 -35z m305 0 c0 -27 -4 -30
-32 -33 -32 -3 -33 -2 -33 33 0 35 1 36 33 33 28 -3 32 -6 32 -33z m-305 -155
c0 -39 -1 -40 -35 -40 -34 0 -35 1 -35 40 0 39 1 40 35 40 34 0 35 -1 35 -40z"/>
<path d="M2882 1069 c-98 -49 -153 -174 -153 -349 0 -203 81 -351 206 -374 97
-18 206 67 244 189 68 219 8 465 -130 535 -50 26 -113 25 -167 -1z m129 -6
c81 -48 123 -289 88 -502 -28 -175 -117 -251 -198 -170 -104 103 -106 538 -3
652 34 38 71 45 113 20z"/>
<path d="M5686 1071 c5 -5 18 -11 29 -13 19 -3 20 -12 23 -339 l2 -336 -32
-10 c-27 -9 -14 -11 77 -11 90 0 104 2 78 10 l-33 11 0 348 0 349 -77 0 c-46
0 -73 -4 -67 -9z"/>
<path d="M6195 994 l0 -86 27 33 c15 18 31 51 36 73 l8 41 52 3 52 3 0 -339 0
-339 -32 -9 c-30 -7 -28 -8 25 -12 32 -1 81 -1 110 0 49 4 50 4 20 12 l-33 9
0 338 0 339 55 0 c52 0 55 -1 55 -25 0 -29 31 -95 53 -113 12 -10 14 1 14 73
l0 85 -221 0 -221 0 0 -86z"/>
<path d="M8306 1071 c5 -5 18 -11 29 -13 19 -3 20 -12 23 -341 2 -316 1 -337
-15 -337 -10 0 -25 -5 -33 -10 -10 -7 7 -10 58 -10 71 0 72 0 72 26 l0 27 26
-27 c15 -14 44 -31 65 -37 33 -10 43 -9 86 12 195 97 141 483 -68 483 -35 0
-57 -7 -79 -22 l-30 -23 0 141 0 140 -72 0 c-43 0 -68 -4 -62 -9z m307 -304
c26 -51 38 -157 26 -246 -10 -84 -33 -130 -72 -149 -35 -17 -72 0 -104 47 -22
32 -23 44 -23 190 0 174 6 194 63 209 46 13 86 -6 110 -51z"/>
<path d="M3716 978 c-21 -29 -20 -41 2 -61 37 -34 82 -15 82 35 0 47 -57 65
-84 26z"/>
<path d="M4485 980 c-35 -39 3 -91 55 -75 28 9 37 51 15 75 -23 25 -47 25 -70
0z"/>
<path d="M4235 850 c-33 -17 -45 -18 -78 -9 -78 21 -177 -24 -211 -94 -31 -67
-12 -164 42 -203 14 -10 13 -13 -7 -23 -25 -14 -61 -68 -61 -93 0 -9 11 -30
24 -45 24 -28 26 -28 165 -33 129 -5 142 -7 163 -28 34 -33 32 -110 -2 -147
-42 -45 -76 -58 -148 -53 -58 4 -68 8 -93 36 -23 26 -29 42 -29 80 0 45 -2 49
-35 65 -33 16 -35 16 -45 -3 -30 -56 5 -138 75 -174 61 -32 180 -35 240 -6
116 56 139 213 42 284 -25 18 -47 22 -165 26 l-137 5 -3 27 c-4 37 34 63 72
48 38 -14 111 -13 149 4 50 20 95 78 103 131 8 56 -16 125 -52 154 l-25 20 27
17 c26 18 27 17 45 -5 11 -13 19 -32 19 -43 0 -16 5 -18 38 -12 47 8 48 9 34
39 -11 24 -64 55 -95 55 -7 0 -30 -9 -52 -20z m-71 -44 c33 -32 49 -116 37
-183 -13 -64 -28 -89 -61 -103 -59 -24 -107 26 -117 124 -14 134 71 232 141
162z"/>
<path d="M3511 828 c-18 -13 -44 -43 -57 -68 l-24 -45 0 58 0 57 -72 -1 c-72
-1 -73 -1 -40 -15 l32 -14 0 -205 0 -205 -32 -14 c-31 -14 -28 -14 72 -15 71
0 100 2 90 9 -8 5 -23 10 -32 10 -16 0 -18 14 -18 153 0 133 3 156 20 184 25
42 54 56 100 50 35 -4 38 -3 49 30 15 40 14 41 -25 49 -21 4 -38 -1 -63 -18z"/>
<path d="M4910 839 c-14 -6 -37 -22 -52 -36 l-28 -27 0 27 c0 27 0 27 -72 27
-51 0 -68 -3 -58 -10 8 -5 23 -10 33 -10 16 0 17 -17 17 -215 0 -198 -1 -215
-17 -215 -10 0 -25 -5 -33 -10 -10 -7 19 -9 90 -9 100 1 103 1 73 15 l-33 14
0 172 c0 169 0 173 26 209 31 45 71 62 105 45 43 -21 49 -49 49 -247 l0 -185
-27 -11 c-23 -9 -9 -11 77 -11 85 0 99 2 73 10 l-31 10 -4 183 c-3 167 -5 186
-24 211 -43 58 -112 85 -164 63z"/>
<path d="M5360 837 c-66 -22 -100 -60 -100 -111 0 -27 11 -31 59 -17 19 5 24
14 26 45 5 87 106 105 134 25 6 -18 11 -58 11 -90 l0 -59 -32 0 c-63 0 -149
-32 -189 -70 -35 -33 -39 -42 -39 -88 0 -64 32 -106 92 -123 55 -14 100 -4
137 30 l31 29 0 -24 c0 -23 2 -24 78 -23 74 0 76 1 42 13 l-35 13 -5 184 c-4
154 -8 189 -23 212 -33 50 -122 76 -187 54z m130 -311 c0 -77 -2 -87 -27 -116
-65 -77 -143 -47 -143 55 0 84 57 140 148 144 21 1 22 -2 22 -83z"/>
<path d="M6891 828 c-18 -13 -44 -43 -57 -68 l-24 -45 0 58 0 57 -72 -1 c-72
-1 -73 -1 -40 -15 l32 -14 0 -205 0 -205 -32 -14 c-31 -14 -28 -14 72 -15 71
0 100 2 90 9 -8 5 -23 10 -32 10 -16 0 -18 14 -18 153 0 133 3 156 20 184 25
42 54 56 100 50 35 -4 38 -3 49 30 15 40 14 41 -25 49 -21 4 -38 -1 -63 -18z"/>
<path d="M7177 835 c-89 -31 -137 -115 -137 -240 0 -63 5 -91 24 -130 59 -127
187 -158 286 -69 51 46 74 109 74 199 0 90 -23 153 -74 199 -33 30 -93 57
-125 56 -5 -1 -27 -7 -48 -15z m102 -29 c34 -36 51 -108 51 -216 0 -106 -16
-169 -52 -207 -71 -76 -148 35 -148 212 0 178 77 288 149 211z"/>
<path d="M7730 839 c-14 -6 -37 -22 -52 -36 l-28 -27 0 27 c0 27 0 27 -72 27
-51 0 -68 -3 -58 -10 8 -5 23 -10 33 -10 16 0 17 -17 17 -215 0 -198 -1 -215
-17 -215 -10 0 -25 -5 -33 -10 -10 -7 19 -9 90 -9 100 1 103 1 73 15 l-33 14
0 171 c0 157 2 175 21 206 30 48 71 68 106 51 47 -23 53 -47 53 -249 l0 -185
-27 -11 c-23 -9 -10 -11 72 -11 82 0 95 2 73 11 l-28 11 0 183 0 183 33 34
c44 47 69 52 102 24 36 -31 44 -79 45 -265 l0 -153 -32 -14 c-31 -14 -28 -14
72 -15 71 0 100 2 90 9 -8 5 -23 10 -32 10 -16 0 -18 15 -18 172 0 151 -2 177
-20 213 -46 96 -171 108 -231 23 l-21 -30 -30 36 c-17 21 -44 39 -66 46 -44
12 -49 12 -82 -1z"/>
<path d="M8975 837 c-57 -23 -85 -49 -112 -105 -24 -48 -28 -70 -28 -137 0
-67 4 -89 27 -135 63 -127 198 -155 289 -60 108 113 84 360 -40 425 -41 21
-101 26 -136 12z m92 -22 c39 -27 58 -99 58 -220 0 -83 -5 -122 -18 -158 -32
-80 -86 -100 -131 -47 -35 42 -48 99 -48 205 0 106 13 163 48 205 28 33 58 38
91 15z"/>
<path d="M9524 836 c-17 -8 -41 -24 -53 -37 l-21 -23 0 27 0 27 -77 -1 c-75 0
-77 -1 -43 -13 l35 -13 0 -208 0 -208 -35 -13 c-32 -11 -25 -12 75 -12 91 0
104 2 78 10 l-33 11 0 182 0 182 33 38 c25 29 41 38 65 38 69 0 82 -41 82
-269 l0 -171 -32 -9 c-31 -8 -30 -8 20 -12 28 -1 76 -1 105 0 49 4 50 4 20 12
l-33 9 0 176 c0 153 -2 181 -19 211 -32 60 -110 91 -167 66z"/>
<path d="M9989 841 c-92 -29 -139 -111 -140 -243 -1 -90 18 -144 66 -194 66
-69 158 -79 227 -24 28 22 58 78 58 107 -1 10 -12 -5 -25 -32 -40 -84 -127
-115 -180 -65 -30 28 -55 105 -55 167 l0 43 136 0 137 0 -6 55 c-13 126 -119
217 -218 186z m66 -17 c25 -10 55 -78 62 -144 l6 -60 -93 0 -93 0 6 60 c7 62
37 134 59 143 19 8 34 8 53 1z"/>
<path d="M10409 841 c-67 -21 -99 -61 -99 -125 0 -48 37 -88 130 -142 105 -61
120 -77 120 -123 0 -53 -37 -86 -95 -85 -58 1 -102 34 -132 101 -13 29 -26 53
-29 53 -2 0 -4 -38 -4 -85 0 -88 7 -100 37 -65 16 19 17 19 47 1 92 -56 216
-18 246 75 10 30 9 43 -5 80 -18 49 -48 74 -142 124 -83 43 -103 64 -103 104
0 43 28 68 76 68 48 0 83 -27 117 -93 16 -29 30 -55 33 -58 2 -2 4 35 4 82 0
70 -3 87 -15 87 -8 0 -20 -8 -27 -19 -11 -18 -12 -18 -42 -1 -39 23 -84 31
-117 21z"/>
<path d="M3688 814 l32 -14 0 -205 0 -205 -32 -14 c-31 -14 -28 -14 72 -15 71
0 100 2 90 9 -8 5 -23 10 -32 10 -17 0 -18 17 -18 225 l0 225 -72 -1 c-72 -1
-73 -1 -40 -15z"/>
<path d="M4448 818 l32 -11 0 -212 0 -212 -32 -11 c-27 -8 -13 -10 77 -10 90
0 104 2 78 10 l-33 11 0 223 0 224 -77 -1 c-69 -1 -74 -2 -45 -11z"/>
</g>
</svg>
